<svg width="2846" height="2815" viewBox="0 0 2846 2815" fill="none" xmlns="http://www.w3.org/2000/svg">
<path d="M2497 2411.05C2439 2471.37 2384.13 2510.26 2340.77 2540.99C1831.12 2902.24 1228.08 2796.94 1099.92 2771.22C910.659 2733.25 544.828 2659.85 280.339 2352.58C-119.811 1887.71 -57.5024 1155.32 252.882 671.864C309.656 583.431 609.553 92.6068 1219.09 13.8948C1587.98 -33.7412 2017.98 62.3347 2329.38 320.064C2983.03 861.059 2936.49 1953.97 2497 2411.05Z" fill="url(#paint0_linear_13902_408)"/>
<path d="M1164.35 2584.67C1146.53 2263.41 1027.38 1970.35 604.406 1761.86C604.406 1761.86 538.756 2549.93 1164.35 2584.67Z" fill="#BDD0FB"/>
<path opacity="0.51" d="M1048.2 2445.2C1047.34 2445.2 1046.48 2444.88 1045.82 2444.24C806.579 2210.74 657.106 1868.18 655.623 1864.75C654.878 1863.02 655.673 1861.02 657.398 1860.28C659.113 1859.53 661.127 1860.32 661.872 1862.05C663.348 1865.47 812.316 2206.83 1050.58 2439.36C1051.92 2440.68 1051.95 2442.83 1050.64 2444.18C1049.97 2444.86 1049.08 2445.2 1048.2 2445.2Z" fill="white"/>
<path d="M1901.73 2564.61C2190.62 2591.27 2467.78 2523.84 2709.76 2174.21C2709.76 2174.21 2015.59 2011.26 1901.73 2564.61Z" fill="#BDD0FB"/>
<path opacity="0.51" d="M2065.64 2470.24C2064.86 2470.24 2064.08 2469.97 2063.44 2469.43C2062.01 2468.21 2061.83 2466.07 2063.05 2464.63C2149.41 2362.84 2290.81 2298.15 2394.22 2261.81C2506.11 2222.5 2598.91 2206.96 2599.83 2206.81C2601.71 2206.48 2603.44 2207.76 2603.74 2209.62C2604.05 2211.47 2602.8 2213.22 2600.94 2213.53C2597.26 2214.14 2231.74 2276.31 2068.24 2469.04C2067.57 2469.83 2066.61 2470.24 2065.64 2470.24Z" fill="white"/>
<path d="M1197.85 1955.78L1137.11 2500.54H1841.81L1750.02 1955.78H1197.85Z" fill="url(#paint1_linear_13902_408)"/>
<path d="M14.0664 613.62V1861.25C14.0664 1963.89 95.8534 2047.82 198.454 2050.46C654.15 2062.21 2247.96 2090.71 2681.75 2084.31C2756.31 2083.21 2816.7 2023.55 2818.85 1949.01C2827.22 1659.17 2840.8 962.2 2790.53 638.623C2779.94 570.481 2722.43 519.526 2653.5 517.322C2271.69 505.107 582.147 466.322 148.557 476.06C73.7774 477.737 14.0664 538.821 14.0664 613.62Z" fill="url(#paint2_linear_13902_408)"/>
<path d="M92.3516 607.544V1792.88C92.3516 1852.81 140.454 1901.63 200.371 1902.53L2619.34 1932.41C2678.74 1933.3 2727.44 1885.51 2727.66 1826.1L2731.7 651.354C2731.86 608.875 2698.02 574.069 2655.55 573.035L178.978 523.002C131.48 521.846 92.3516 560.034 92.3516 607.544Z" fill="#91B3FA"/>
<path opacity="0.65" d="M2745.87 1981.04C2745.85 1981.04 2745.83 1981.04 2745.81 1981.04L92.2948 1935.83C90.4138 1935.8 88.9148 1934.25 88.9478 1932.37C88.9848 1930.49 90.6928 1928.99 92.4078 1929.02L2745.92 1974.24C2747.8 1974.27 2749.3 1975.82 2749.27 1977.7C2749.24 1979.56 2747.72 1981.04 2745.87 1981.04Z" fill="white"/>
<path opacity="0.65" d="M1445.29 2036.26C1428.19 2036.26 1414.27 2022.35 1414.27 2005.25C1414.27 1988.15 1428.19 1974.24 1445.29 1974.24C1462.39 1974.24 1476.3 1988.15 1476.3 2005.25C1476.3 2022.35 1462.39 2036.26 1445.29 2036.26ZM1445.29 1981.04C1431.94 1981.04 1421.08 1991.9 1421.08 2005.25C1421.08 2018.6 1431.94 2029.46 1445.29 2029.46C1458.63 2029.46 1469.49 2018.6 1469.49 2005.25C1469.49 1991.9 1458.63 1981.04 1445.29 1981.04Z" fill="white"/>
<path d="M1859.23 2579.73C2169.11 2425.9 2408.17 2183.93 2434.83 1677.59C2434.83 1677.59 1628.31 1946.86 1859.23 2579.73Z" fill="#7D97F4"/>
<path opacity="0.51" d="M1909.36 2465.43C1908.98 2465.43 1908.6 2465.37 1908.23 2465.24C1906.45 2464.62 1905.52 2462.68 1906.14 2460.9C1980.11 2250.04 2090.04 2087.45 2169.24 1988.19C2255.07 1880.61 2324.39 1822.08 2325.08 1821.5C2326.53 1820.3 2328.67 1820.49 2329.88 1821.92C2331.08 1823.36 2330.89 1825.51 2329.45 1826.72C2326.71 1829.02 2053.48 2061.45 1912.57 2463.16C1912.07 2464.56 1910.76 2465.43 1909.36 2465.43Z" fill="white"/>
<path d="M1993.61 2611.99H962.221C934.201 2611.99 913.16 2592.05 918.577 2570.62L931.811 2518.28C935.791 2502.54 953.107 2490.98 973.675 2490.34L1967.97 2459.32C1989.46 2458.65 2008.48 2470.05 2013.16 2486.41L2037.02 2569.78C2043.22 2591.44 2022.08 2611.99 1993.61 2611.99Z" fill="url(#paint3_linear_13902_408)"/>
<path d="M1517.44 2504.56C1515.58 2504.56 1514.06 2503.07 1514.03 2501.21C1514.01 2499.33 1515.51 2497.78 1517.39 2497.75L1559.99 2497.13C1560.01 2497.13 1560.03 2497.13 1560.04 2497.13C1561.9 2497.13 1563.42 2498.62 1563.45 2500.49C1563.47 2502.37 1561.97 2503.91 1560.09 2503.94L1517.49 2504.56C1517.47 2504.56 1517.45 2504.56 1517.44 2504.56Z" fill="white"/>
<path d="M956.761 2583.18C956.585 2583.18 956.402 2583.17 956.223 2583.14C954.365 2582.84 953.102 2581.09 953.398 2579.24L959.477 2541.17C962.744 2520.7 980.167 2505.61 1000.9 2505.31L1452.81 2498.7C1452.83 2498.7 1452.84 2498.7 1452.86 2498.7C1454.72 2498.7 1456.24 2500.19 1456.27 2502.05C1456.29 2503.93 1454.79 2505.48 1452.91 2505.51L1001 2512.11C983.58 2512.37 968.946 2525.04 966.198 2542.24L960.119 2580.31C959.852 2581.98 958.406 2583.18 956.761 2583.18Z" fill="white"/>
<path d="M2249.34 102.4C2264.76 103.13 2280.33 104.542 2295.59 106.593C2297.69 106.874 2299.73 106.689 2301.63 106.116C2306.85 104.543 2310.94 100.046 2311.71 94.2915C2312.76 86.4455 2307.26 79.2265 2299.41 78.1715C2283.33 76.0125 2266.94 74.5275 2250.7 73.7585C2242.79 73.3845 2236.07 79.4925 2235.7 87.4025C2235.32 95.3085 2241.43 102.024 2249.34 102.4Z" fill="url(#paint4_linear_13902_408)"/>
<path d="M1847.68 232.457C1842.2 226.739 1833.12 226.545 1827.4 232.026C1815.68 243.259 1804.31 255.138 1793.59 267.321C1788.36 273.267 1788.94 282.323 1794.88 287.556C1798.74 290.954 1803.92 291.896 1808.51 290.513C1810.98 289.766 1813.29 288.346 1815.12 286.261C1825.3 274.684 1836.11 263.404 1847.25 252.728C1852.96 247.247 1853.15 238.169 1847.68 232.457Z" fill="url(#paint5_linear_13902_408)"/>
<path d="M1671.86 556.467C1664.02 555.409 1656.79 560.895 1655.72 568.741C1653.53 584.832 1652.02 601.211 1651.22 617.421C1650.83 625.33 1656.93 632.056 1664.84 632.45C1666.52 632.532 1668.16 632.319 1669.68 631.858C1675.32 630.156 1679.56 625.055 1679.86 618.832C1680.62 603.436 1682.06 587.886 1684.14 572.606C1685.2 564.761 1679.71 557.535 1671.86 556.467Z" fill="url(#paint6_linear_13902_408)"/>
<path d="M1765.26 326.333C1758.64 321.969 1749.75 323.798 1745.39 330.411C1736.44 343.981 1727.98 358.081 1720.23 372.309C1716.44 379.261 1719.01 387.968 1725.97 391.755C1729.47 393.664 1733.42 393.959 1736.96 392.89C1740.45 391.839 1743.53 389.468 1745.41 386.018C1752.78 372.495 1760.82 359.094 1769.33 346.197C1773.69 339.583 1771.86 330.692 1765.26 326.333Z" fill="url(#paint7_linear_13902_408)"/>
<path d="M2127.9 110.342C2143.1 107.623 2158.59 105.519 2173.94 104.101C2174.91 104.011 2175.86 103.819 2176.77 103.545C2183.16 101.617 2187.53 95.4034 2186.89 88.5014C2186.16 80.6184 2179.18 74.8164 2171.29 75.5464C2155.14 77.0424 2138.84 79.2564 2122.85 82.1164C2115.04 83.4774 2109.87 90.9624 2111.26 98.7564C2112.65 106.547 2120.1 111.735 2127.9 110.342Z" fill="url(#paint8_linear_13902_408)"/>
<path d="M1705.64 436.139C1698.23 433.355 1689.97 437.1 1687.17 444.501C1681.45 459.693 1676.31 475.323 1671.9 490.955C1669.76 498.575 1674.19 506.497 1681.81 508.644C1684.54 509.413 1687.3 509.34 1689.83 508.578C1694.36 507.21 1698.12 503.632 1699.5 498.739C1703.69 483.883 1708.57 469.038 1714 454.611C1716.8 447.201 1713.05 438.93 1705.64 436.139Z" fill="url(#paint9_linear_13902_408)"/>
<path d="M1665.84 681.239C1657.93 681.982 1652.14 688.928 1652.86 696.814C1654.32 712.934 1656.49 729.23 1659.33 745.246C1660.71 753.042 1668.15 758.244 1675.95 756.864C1676.51 756.763 1677.07 756.631 1677.6 756.469C1684.46 754.4 1688.85 747.48 1687.57 740.25C1684.87 725.03 1682.8 709.55 1681.41 694.226C1680.7 686.345 1673.73 680.527 1665.84 681.239Z" fill="url(#paint10_linear_13902_408)"/>
<path d="M1900.9 206.591C1902.38 206.144 1903.82 205.442 1905.15 204.486C1917.64 195.468 1930.69 186.884 1943.91 178.976C1950.71 174.908 1952.92 166.103 1948.86 159.309C1944.79 152.51 1936.01 150.334 1929.19 154.366C1915.27 162.697 1901.53 171.736 1888.37 181.233C1881.95 185.866 1880.5 194.826 1885.13 201.25C1888.81 206.343 1895.21 208.308 1900.9 206.591Z" fill="url(#paint11_linear_13902_408)"/>
<path d="M2009.72 145.418C2010.21 145.272 2010.69 145.097 2011.17 144.899C2025.37 138.91 2040 133.454 2054.68 128.686C2062.22 126.244 2066.34 118.157 2063.89 110.623C2061.48 103.191 2053.57 99.0778 2046.12 101.324C2046.03 101.353 2045.93 101.383 2045.83 101.418C2030.37 106.432 2014.96 112.174 2000.03 118.475C1992.73 121.558 1989.31 129.966 1992.39 137.263C1995.27 144.075 2002.8 147.507 2009.72 145.418Z" fill="url(#paint12_linear_13902_408)"/>
<path d="M1705.7 813.284C1703.3 805.837 1695.32 801.519 1687.86 803.768C1687.78 803.795 1687.69 803.822 1687.6 803.849C1680.02 806.135 1675.98 814.55 1678.41 822.088C1683.41 837.579 1689.25 853.443 1695.52 868.375C1698.38 875.203 1705.89 878.528 1712.82 876.435C1713.3 876.291 1713.71 875.893 1714.18 875.694C1721.48 872.631 1724.93 864.268 1721.86 856.968C1715.91 842.783 1710.45 828.003 1705.7 813.284Z" fill="url(#paint13_linear_13902_408)"/>
<path d="M2409.3 119.201C2411.75 111.676 2407.63 103.583 2400.1 101.133C2392.7 98.7254 2385.14 96.4324 2377.61 94.3174C2369.98 92.1604 2362.06 96.6124 2359.92 104.237C2357.78 111.857 2362.22 119.776 2369.84 121.917C2377 123.934 2384.2 126.11 2391.23 128.401C2394.12 129.342 2397.09 129.311 2399.79 128.496C2404.13 127.187 2407.79 123.844 2409.3 119.201Z" fill="url(#paint14_linear_13902_408)"/>
<path d="M2170.11 1187.4C2155.01 1185.92 2139.78 1183.77 2124.87 1181.02C2117.07 1179.58 2109.6 1184.73 2108.17 1192.52C2106.73 1200.31 2111.88 1207.78 2119.67 1209.22C2135.37 1212.11 2151.41 1214.37 2167.31 1215.94C2169.23 1216.12 2171.1 1215.93 2172.85 1215.4C2178.24 1213.77 2182.39 1209.02 2182.98 1203.07C2183.75 1195.19 2177.99 1188.17 2170.11 1187.4Z" fill="url(#paint15_linear_13902_408)"/>
<path d="M2761.65 433.019C2764.77 439.443 2772.05 442.488 2778.67 440.49C2779.39 440.272 2780.11 439.998 2780.81 439.658C2787.93 436.2 2790.9 427.623 2787.45 420.499C2784.05 413.498 2780.45 406.448 2776.74 399.552C2773 392.579 2764.33 389.947 2757.33 393.709C2750.35 397.456 2747.73 406.148 2751.48 413.126C2755 419.674 2758.42 426.369 2761.65 433.019Z" fill="url(#paint16_linear_13902_408)"/>
<path d="M2826.8 603.444C2818.94 604.211 2813.15 611.217 2813.92 619.1C2815.39 634.215 2816.23 649.558 2816.42 664.709C2816.52 672.624 2823.02 678.964 2830.94 678.862C2832.31 678.845 2833.64 678.636 2834.9 678.257C2840.86 676.458 2845.17 670.883 2845.09 664.345C2844.89 648.394 2844.01 632.241 2842.46 616.329C2841.69 608.446 2834.68 602.675 2826.8 603.444Z" fill="url(#paint17_linear_13902_408)"/>
<path d="M2828.26 726.41C2820.41 725.424 2813.23 730.994 2812.25 738.849C2810.36 753.891 2807.79 769.049 2804.63 783.908C2802.98 791.652 2807.92 799.265 2815.67 800.912C2818.11 801.432 2820.54 801.295 2822.78 800.62C2827.62 799.159 2831.55 795.174 2832.68 789.873C2836 774.233 2838.7 758.269 2840.69 742.424C2841.68 734.568 2836.11 727.397 2828.26 726.41Z" fill="url(#paint18_linear_13902_408)"/>
<path d="M2731.47 962.795C2723.33 975.591 2714.55 988.213 2705.37 1000.31C2700.58 1006.61 2701.81 1015.61 2708.11 1020.4C2711.91 1023.28 2716.69 1023.98 2720.93 1022.7C2723.73 1021.86 2726.3 1020.15 2728.2 1017.65C2737.87 1004.92 2747.1 991.642 2755.67 978.174C2759.91 971.488 2757.94 962.63 2751.26 958.382C2744.56 954.131 2735.71 956.105 2731.47 962.795Z" fill="url(#paint19_linear_13902_408)"/>
<path d="M2563.14 1130.93C2550.3 1139.05 2536.97 1146.7 2523.53 1153.68C2516.5 1157.33 2513.76 1165.98 2517.41 1173.01C2520.64 1179.23 2527.79 1182.09 2534.26 1180.13C2535.1 1179.88 2535.93 1179.55 2536.74 1179.13C2550.9 1171.77 2564.94 1163.72 2578.46 1155.17C2585.15 1150.94 2587.15 1142.08 2582.92 1135.39C2578.69 1128.69 2569.84 1126.71 2563.14 1130.93Z" fill="url(#paint20_linear_13902_408)"/>
<path d="M2656.57 1056.2C2645.82 1066.95 2634.51 1077.34 2622.94 1087.1C2616.88 1092.21 2616.12 1101.26 2621.23 1107.31C2625.03 1111.82 2631.02 1113.39 2636.33 1111.79C2638.15 1111.24 2639.89 1110.32 2641.43 1109.02C2653.61 1098.74 2665.52 1087.8 2676.84 1076.48C2682.44 1070.89 2682.44 1061.81 2676.85 1056.21C2671.25 1050.61 2662.17 1050.61 2656.57 1056.2Z" fill="url(#paint21_linear_13902_408)"/>
<path d="M2802.6 846.67C2795.15 843.976 2786.94 847.839 2784.25 855.283C2779.1 869.541 2773.28 883.769 2766.94 897.585C2763.64 904.782 2766.79 913.294 2773.99 916.593C2777.3 918.111 2780.88 918.265 2784.1 917.291C2787.91 916.145 2791.22 913.432 2793 909.542C2799.67 895.006 2805.8 880.026 2811.22 865.025C2813.91 857.575 2810.05 849.361 2802.6 846.67Z" fill="url(#paint22_linear_13902_408)"/>
<path d="M2338.93 1210.94C2323.84 1212.81 2308.51 1214.07 2293.37 1214.68C2285.47 1214.97 2279.3 1221.66 2279.61 1229.57C2279.93 1237.48 2286.6 1243.64 2294.51 1243.32C2310.45 1242.69 2326.59 1241.37 2342.46 1239.4C2343.28 1239.29 2344.08 1239.12 2344.85 1238.89C2351.42 1236.91 2355.79 1230.44 2354.92 1223.4C2353.95 1215.55 2346.78 1209.97 2338.93 1210.94Z" fill="url(#paint23_linear_13902_408)"/>
<path d="M2455.49 1183.29C2441.29 1188.35 2426.65 1192.87 2411.82 1196.81C2404.19 1198.8 2399.6 1206.69 2401.64 1214.35C2403.67 1222 2411.52 1226.56 2419.17 1224.53C2425.6 1222.83 2431.97 1221.02 2438.28 1219.12C2447.3 1216.4 2456.32 1213.43 2465.1 1210.31C2472.56 1207.65 2476.46 1199.45 2473.8 1191.99C2471.15 1184.53 2462.96 1180.65 2455.49 1183.29Z" fill="url(#paint24_linear_13902_408)"/>
<path d="M2816.67 492.984C2814.22 485.458 2806.18 481.163 2798.6 483.792C2791.07 486.239 2786.95 494.331 2789.4 501.863C2790.65 505.682 2791.86 509.529 2793.02 513.395C2796.25 524.076 2799.18 535 2801.75 545.879C2803.57 553.584 2811.3 558.355 2819 556.534C2819.29 556.465 2819.58 556.39 2819.86 556.305C2827.06 554.134 2831.41 546.702 2829.65 539.287C2826.95 527.847 2823.86 516.348 2820.48 505.115C2819.25 501.045 2817.98 497.006 2816.67 492.984Z" fill="url(#paint25_linear_13902_408)"/>
<path d="M2052.63 1162.47C2045.63 1160.15 2038.55 1157.64 2031.58 1155.01C2024.17 1152.21 2015.9 1155.96 2013.1 1163.37C2010.31 1170.77 2014.05 1179.05 2021.46 1181.84C2028.79 1184.61 2036.25 1187.25 2043.62 1189.69C2046.53 1190.65 2049.52 1190.63 2052.25 1189.81C2056.57 1188.51 2060.21 1185.19 2061.73 1180.58C2064.22 1173.06 2060.14 1164.95 2052.63 1162.47Z" fill="url(#paint26_linear_13902_408)"/>
<path d="M2693.01 526.869L2612.31 515.49C2596.87 481.114 2576.25 450.006 2551.68 422.828L2447.51 442.848L2367.9 529.166L2438.18 681.338L2260.3 675.393L2156.34 752.804L2170.45 889.41L2061.12 868.21L2023.9 905.124L2002.89 983.66C2002.15 986.422 2003.25 989.347 2005.62 990.947L2086.72 1045.65C2089.09 1047.25 2092.22 1047.17 2094.5 1045.45L2159.66 996.393C2195.26 1009.93 2233.27 1017.89 2272.44 1019.38L2313.22 1089.94C2314.65 1092.42 2317.5 1093.71 2320.3 1093.17L2416.33 1074.5C2419.14 1073.96 2421.29 1071.69 2421.69 1068.86L2433.07 988.154C2468.83 972.095 2501.09 950.478 2529.03 924.59L2607.82 945.663C2610.58 946.402 2613.5 945.307 2615.1 942.938L2669.8 861.835C2671.4 859.463 2671.32 856.34 2669.6 854.057L2620.55 788.902C2634.09 753.301 2642.04 715.285 2643.53 676.118L2714.1 635.333C2716.58 633.903 2717.87 631.06 2717.32 628.254L2698.66 532.223C2698.11 529.419 2695.85 527.267 2693.01 526.869Z" fill="url(#paint27_linear_13902_408)"/>
<path d="M2318.42 730.437C2283.91 746.666 2243.27 734.292 2223.12 703.119L2204.71 716.85C2228.63 752.618 2273.47 768.804 2314.69 756.37C2319.24 754.998 2323.75 753.275 2328.18 751.197C2358.03 737.168 2377.52 709.951 2383.05 679.739L2359.77 678.914C2354.77 700.757 2340.22 720.193 2318.42 730.437Z" fill="url(#paint28_linear_13902_408)"/>
<path d="M2518.75 590.092C2503.36 539.129 2471.84 495.113 2428.13 463.859L2420.29 472.36C2462.53 502.18 2492.98 544.431 2507.77 593.427C2510.04 600.945 2511.94 608.625 2513.46 616.438C2522.12 660.996 2517.25 705.103 2501.72 744.494C2473.8 815.318 2411.44 870.911 2331.32 886.472C2315.19 889.612 2298.75 891.037 2282.46 890.704C2279.3 890.646 2276.67 893.152 2276.61 896.318C2276.6 896.937 2276.68 897.537 2276.85 898.1C2277.55 900.415 2279.68 902.12 2282.23 902.17C2283.19 902.187 2284.16 901.665 2285.13 901.671C2285.63 901.678 2286.13 901.142 2286.63 901.142C2286.8 901.142 2286.98 901.142 2287.15 901.142C2300.03 901.142 2312.96 900.636 2325.75 898.574C2328.35 898.155 2330.93 897.965 2333.51 897.463C2341.7 895.871 2349.75 894.01 2357.63 891.633C2410.76 875.609 2456.38 842.149 2487.82 795.525C2523.94 741.983 2537.04 677.614 2524.72 614.212C2523.12 606.012 2521.13 597.984 2518.75 590.092Z" fill="url(#paint29_linear_13902_408)"/>
<path d="M2087.13 827.324L2073.68 697.164L2177.65 619.753L2350.95 625.545C2353.05 625.615 2354.48 623.448 2353.6 621.541L2285.24 473.526L2364.86 387.208L2469.03 367.188C2468.04 366.097 2467.09 364.97 2466.09 363.891L2487.16 285.101C2487.9 282.341 2486.81 279.416 2484.44 277.818L2403.33 223.114C2400.97 221.514 2397.84 221.596 2395.56 223.315L2330.4 272.37C2294.8 258.833 2256.79 250.877 2217.62 249.384L2176.83 178.817C2175.4 176.342 2172.56 175.047 2169.75 175.592L2073.73 194.26C2070.92 194.806 2068.77 197.072 2068.37 199.903L2056.99 280.609C2021.23 296.665 1988.97 318.284 1961.03 344.172L1882.24 323.099C1879.48 322.359 1876.55 323.455 1874.96 325.825L1820.25 406.928C1818.65 409.298 1818.74 412.42 1820.45 414.703L1869.51 479.859C1855.97 515.46 1848.02 553.477 1846.52 592.643L1775.96 633.428C1773.48 634.858 1772.19 637.701 1772.73 640.506L1791.4 736.536C1791.95 739.343 1794.21 741.495 1797.04 741.894L1877.75 753.272C1893.81 789.027 1915.42 821.293 1941.31 849.231L1941.24 849.482L1978.46 812.568L2081.43 832.535C2084.6 833.15 2087.46 830.532 2087.13 827.324Z" fill="url(#paint30_linear_13902_408)"/>
<path d="M2140.47 647.478C2138.65 644.659 2136.93 641.743 2135.47 638.622C2117.79 601 2134.01 556.001 2171.64 538.323C2175.05 536.72 2178.53 535.388 2182.08 534.319C2197.47 529.677 2213.88 530.085 2229.28 535.637C2248.22 542.47 2263.37 556.268 2271.94 574.498C2279.37 590.318 2280.74 607.425 2277.12 623.274L2300.39 624.099C2303.95 604.649 2301.73 583.96 2292.7 564.739C2281.53 540.966 2261.77 522.966 2237.06 514.057C2212.36 505.146 2185.66 506.385 2161.88 517.563C2112.81 540.624 2091.65 599.304 2114.71 648.382C2116.84 652.923 2119.35 657.16 2122.06 661.21L2140.47 647.478Z" fill="url(#paint31_linear_13902_408)"/>
<path d="M2339.92 404.294C2286.38 368.178 2221.98 355.073 2158.58 367.398C2027.75 392.833 1941.93 520.005 1967.37 650.885C1968.95 658.951 1970.92 666.909 1973.28 674.726C1983.5 708.606 2001.03 739.873 2024.71 766.22C2026.83 768.586 2030.45 768.765 2032.81 766.654C2034.52 765.121 2035.09 762.791 2034.46 760.732C2034.23 759.948 2033.82 759.205 2033.24 758.557C2010.69 733.461 1993.99 703.68 1984.26 671.408C1982.01 663.962 1980.13 656.379 1978.63 648.693C1954.4 524.036 2036.06 402.916 2160.77 378.659C2221.16 366.92 2282.51 379.401 2333.51 413.803C2334.91 414.748 2336.26 415.745 2337.64 416.716L2345.48 408.215C2343.64 406.898 2341.81 405.566 2339.92 404.294Z" fill="url(#paint32_linear_13902_408)"/>
<path d="M644.848 598.22C754.978 488.09 754.978 309.535 644.848 199.405C534.719 89.2759 356.164 89.2759 246.034 199.405C135.905 309.535 135.905 488.09 246.034 598.22C356.164 708.349 534.719 708.349 644.848 598.22Z" fill="white"/>
<path d="M445.452 671.448C596.022 671.448 718.082 549.387 718.082 398.818C718.082 248.248 596.022 126.188 445.452 126.188C294.883 126.188 172.822 248.248 172.822 398.818C172.822 549.387 294.883 671.448 445.452 671.448Z" fill="url(#paint33_linear_13902_408)"/>
<path opacity="0.7" d="M670.263 288.445C670.699 288.445 671.142 288.347 671.559 288.135C672.98 287.417 673.549 285.685 672.831 284.267C629.242 197.912 542.117 144.266 445.453 144.266C430.037 144.266 414.588 145.655 399.535 148.401C397.97 148.685 396.932 150.184 397.217 151.751C397.502 153.318 398.996 154.364 400.568 154.066C415.281 151.385 430.382 150.027 445.453 150.027C539.93 150.027 625.086 202.46 667.69 286.86C668.196 287.865 669.209 288.445 670.263 288.445Z" fill="white"/>
<path d="M602.663 567.92C692.775 477.808 692.775 331.708 602.663 241.596C512.552 151.484 366.451 151.484 276.34 241.596C186.228 331.708 186.228 477.808 276.34 567.92C366.451 658.032 512.552 658.032 602.663 567.92Z" fill="white"/>
<path d="M453.796 449.62L427.682 448.996C420.403 448.822 414.382 442.598 414.001 435.272L404.441 251.296C404.243 247.504 405.607 244.378 408.209 241.813C410.808 239.25 414.414 238.425 418.179 238.687L463.152 241.819C466.837 242.076 470.356 243.298 472.885 246.179C475.412 249.055 476.733 252.506 476.542 256.213L467.241 436.838C466.869 444.06 460.969 449.791 453.796 449.62Z" fill="url(#paint34_linear_13902_408)"/>
<path d="M413.497 494.56C420.017 488.333 429.192 485.32 440.989 485.508C453.15 485.702 462.368 488.908 468.679 495.113C474.974 501.301 478.114 510.343 478.114 522.253C478.114 533.736 474.905 542.621 468.469 548.921C462.017 555.24 452.867 558.405 440.988 558.405C429.333 558.405 420.195 555.139 413.603 548.591C406.994 542.025 403.682 533.043 403.682 521.659C403.683 509.843 406.959 500.805 413.497 494.56Z" fill="url(#paint35_linear_13902_408)"/>
<path d="M1474.9 275.97L746.914 1499.15C730.932 1526 751.822 1558.86 785.053 1559.13L2228.13 1571.01C2261.49 1571.28 2283 1538.56 2267.3 1511.44L1552.2 276.38C1535.76 247.987 1491.69 247.753 1474.9 275.97Z" fill="url(#paint36_linear_13902_408)"/>
<path d="M1478.58 349.04L817.425 1459.93C802.91 1484.32 821.883 1514.16 852.062 1514.41L2162.66 1525.19C2192.95 1525.44 2212.49 1495.72 2198.23 1471.09L1548.78 349.412C1533.85 323.626 1493.83 323.413 1478.58 349.04Z" fill="url(#paint37_linear_13902_408)"/>
<path d="M1364.93 1110.25L1332.63 1110.67V1168.35L1276.89 1169.28V1111.4L1160.46 1112.91V1071.53L1280.04 889.992L1332.63 890.049V1064.99L1364.93 1064.66V1110.25ZM1276.89 1065.55V1018.17C1276.89 1010.28 1277.2 998.812 1277.82 983.781C1278.43 968.754 1278.93 960.028 1279.3 957.605L1277.82 957.61C1273.24 968.072 1267.74 978.286 1261.31 988.259L1211.42 1066.21L1276.89 1065.55Z" fill="url(#paint38_linear_13902_408)"/>
<path d="M1577.96 1027.29C1577.96 1075.13 1570.5 1110.65 1555.56 1133.86C1540.6 1157.12 1517.49 1169.03 1486.18 1169.56C1455.71 1170.08 1432.65 1158.49 1417.08 1134.76C1401.48 1110.98 1393.67 1075.63 1393.67 1028.73C1393.67 979.806 1401.26 943.731 1416.44 920.532C1431.59 897.381 1454.86 885.84 1486.18 885.883C1516.54 885.924 1539.4 897.978 1554.85 922.007C1570.27 945.988 1577.96 981.071 1577.96 1027.29ZM1449.49 1028.29C1449.49 1062.18 1452.3 1086.42 1457.91 1101.02C1463.52 1115.61 1472.94 1122.81 1486.18 1122.63C1499.15 1122.45 1508.51 1114.91 1514.26 1100.03C1520.01 1085.17 1522.88 1061.07 1522.88 1027.72C1522.88 993.998 1519.98 969.781 1514.17 955.065C1508.36 940.341 1499.03 932.983 1486.18 933.005C1473.07 933.027 1463.67 940.437 1458 955.24C1452.33 970.056 1449.49 994.411 1449.49 1028.29Z" fill="url(#paint39_linear_13902_408)"/>
<path d="M1799.47 1104.61L1768.95 1105V1161.07L1716.27 1161.95V1105.69L1606.28 1107.12V1066.9L1719.25 890.469L1768.95 890.522V1060.59L1799.47 1060.28V1104.61ZM1716.27 1061.12V1015.07C1716.27 1007.39 1716.56 996.25 1717.15 981.64C1717.73 967.033 1718.2 958.551 1718.55 956.196L1717.15 956.201C1712.83 966.37 1707.63 976.298 1701.56 985.992L1654.42 1061.75L1716.27 1061.12Z" fill="url(#paint40_linear_13902_408)"/>
<path d="M1239.17 1412.34L1153.18 1415.09V1261.47L1239.17 1259.55V1286.09L1184.95 1287.4V1321.06L1235.41 1319.74V1346.29L1184.95 1347.7V1387.23L1239.17 1385.59V1412.34Z" fill="url(#paint41_linear_13902_408)"/>
<path d="M1306.55 1351.8V1410.18L1275.26 1411.18V1258.75L1318.22 1257.78C1338.17 1257.34 1352.9 1260.76 1362.44 1268.05C1371.96 1275.32 1376.72 1286.59 1376.72 1301.85C1376.72 1310.76 1374.36 1318.75 1369.63 1325.81C1364.9 1332.89 1358.2 1338.51 1349.53 1342.7C1371.53 1376.15 1385.83 1397.7 1392.47 1407.42L1358.14 1408.53L1323.14 1351.33L1306.55 1351.8ZM1306.55 1325.58L1316.61 1325.31C1326.46 1325.05 1333.72 1323.16 1338.4 1319.64C1343.08 1316.13 1345.42 1310.74 1345.42 1303.47C1345.42 1296.28 1343.03 1291.21 1338.25 1288.29C1333.47 1285.35 1326.06 1284.01 1316 1284.25L1306.54 1284.48L1306.55 1325.58Z" fill="url(#paint42_linear_13902_408)"/>
<path d="M1446.59 1347.83V1405.69L1415.86 1406.67V1255.6L1458.05 1254.65C1477.65 1254.22 1492.12 1257.61 1501.49 1264.83C1510.85 1272.05 1515.52 1283.21 1515.52 1298.34C1515.52 1307.17 1513.2 1315.09 1508.56 1322.09C1503.91 1329.1 1497.33 1334.67 1488.81 1338.82C1510.42 1371.98 1524.47 1393.34 1530.99 1402.98L1497.27 1404.06L1462.89 1347.37L1446.59 1347.83ZM1446.59 1321.84L1456.47 1321.58C1466.15 1321.32 1473.28 1319.45 1477.88 1315.97C1482.48 1312.48 1484.78 1307.14 1484.78 1299.94C1484.78 1292.81 1482.43 1287.79 1477.73 1284.89C1473.04 1281.98 1465.75 1280.64 1455.88 1280.88L1446.59 1281.11V1321.84Z" fill="url(#paint43_linear_13902_408)"/>
<path d="M1682.35 1323.68C1682.35 1348.26 1676.59 1367.33 1665.06 1380.89C1653.51 1394.48 1636.93 1401.63 1615.29 1402.32C1593.58 1403.02 1576.86 1396.91 1565.18 1383.98C1553.49 1371.03 1547.63 1352.08 1547.63 1327.14C1547.63 1302.21 1553.5 1283.03 1565.23 1269.61C1576.94 1256.21 1593.7 1249.27 1615.48 1248.79C1637.19 1248.31 1653.76 1254.52 1665.21 1267.41C1676.64 1280.29 1682.35 1299.04 1682.35 1323.68ZM1579.29 1326.49C1579.29 1343.19 1582.31 1355.68 1588.33 1363.95C1594.35 1372.22 1603.34 1376.16 1615.29 1375.8C1639.18 1375.07 1651.11 1357.98 1651.11 1324.53C1651.11 1291.02 1639.25 1274.54 1615.48 1275.11C1603.53 1275.4 1594.51 1279.85 1588.43 1288.48C1582.34 1297.12 1579.29 1309.79 1579.29 1326.49Z" fill="url(#paint44_linear_13902_408)"/>
<path d="M1745.81 1339.35V1396.1L1716.26 1397.04V1248.88L1756.84 1247.97C1775.69 1247.55 1789.61 1250.89 1798.62 1257.98C1807.62 1265.06 1812.12 1276.01 1812.12 1290.85C1812.12 1299.51 1809.89 1307.27 1805.42 1314.14C1800.95 1321.01 1794.62 1326.48 1786.42 1330.54C1807.22 1363.07 1820.73 1384.03 1827.01 1393.49L1794.56 1394.53L1761.49 1338.91L1745.81 1339.35ZM1745.81 1313.87L1755.32 1313.61C1764.62 1313.37 1771.49 1311.53 1775.91 1308.12C1780.33 1304.7 1782.54 1299.47 1782.54 1292.4C1782.54 1285.41 1780.28 1280.48 1775.77 1277.64C1771.25 1274.78 1764.24 1273.47 1754.75 1273.7L1745.81 1273.91L1745.81 1313.87Z" fill="url(#paint45_linear_13902_408)"/>
<path d="M613.344 2692.67C613.344 2692.67 606.1 2733.69 602.547 2774.29C601.159 2790.16 613.392 2803.93 629.307 2804.6C683.375 2806.85 799.03 2811.23 840.531 2809.37C846.77 2809.1 850.849 2802.71 848.54 2796.91C846.605 2792.04 842.874 2788.11 838.119 2785.93L647.079 2698.13L613.344 2692.67Z" fill="url(#paint46_linear_13902_408)"/>
<path d="M607.41 2668.57L613.231 2717.63C613.231 2717.63 646.696 2733.21 669.55 2715.67L655.691 2661L607.41 2668.57Z" fill="url(#paint47_linear_13902_408)"/>
<path d="M611.784 1746.23C609.27 1759.04 598.288 2385.57 665.259 2666.33C666.352 2670.92 664.029 2675.64 659.669 2677.42C649.397 2681.61 629.26 2687.69 605.127 2688.5C597.654 2688.75 590.953 2683.9 588.844 2676.72C569.7 2611.58 477.969 2285.2 466.003 1973.42C452.632 1625.03 466.003 1961.56 466.003 1961.56L473.845 1746.21L611.784 1746.23Z" fill="url(#paint48_linear_13902_408)"/>
<path d="M393.586 2714.07C393.586 2714.07 382.053 2734.78 370.888 2789.8C368.872 2799.73 375.814 2809.24 385.905 2810.24C403.758 2811.99 431.243 2814.25 453.259 2814.1C463.408 2814.03 471.329 2805.19 470.105 2795.12C467.667 2775.03 460.069 2742.08 436.599 2716.4L393.586 2714.07Z" fill="url(#paint49_linear_13902_408)"/>
<path d="M383.457 2650.97L397.058 2725.16C397.058 2725.16 410.506 2735.16 437.109 2727.91L430.617 2648.09L383.457 2650.97Z" fill="url(#paint50_linear_13902_408)"/>
<path d="M346.712 1765.46C291.94 2096.01 358.594 2582.46 381.074 2677.67C382.45 2683.5 387.155 2687.96 393.063 2688.94C403.097 2690.61 419.617 2691.96 435.903 2687.23C441.515 2685.6 445.458 2680.54 445.687 2674.7C448.703 2597.73 443.274 2125.19 494.309 1938.44C496.895 1928.97 502.676 1920.72 510.673 1915.03L609.729 1844.61L617.323 1730.78L346.712 1765.46Z" fill="url(#paint51_linear_13902_408)"/>
<path d="M834.364 1294.26C826.037 1353.48 817.248 1367.09 810.419 1367.44C788.681 1368.56 793.063 1235.05 713.563 1167.52C663.347 1124.86 594.758 1121.35 540.945 1126.32C566.053 1216.37 591.162 1306.42 616.27 1396.47C627.235 1423.38 675.04 1532.19 783.202 1565.22C805.224 1571.94 837.997 1581.95 868.483 1568.85C928.652 1542.99 956.869 1437 929.965 1304.3C917.317 1299.6 899.811 1294.6 834.364 1294.26Z" fill="url(#paint52_linear_13902_408)"/>
<path d="M815.197 1063.34L825.152 1119.61C841.143 1188.45 842.665 1245.82 834.365 1294.26C848.106 1294.83 862.527 1295.8 877.556 1297.28C896.089 1299.11 913.588 1301.52 929.966 1304.3C921.317 1234.29 874.734 1118.05 874.734 1118.05C846.637 1077.5 843.291 1103.89 815.197 1063.34Z" fill="url(#paint53_linear_13902_408)"/>
<path d="M928.993 944.747C917.718 944.449 906.919 949.295 899.643 957.916L828.641 1042.05C828.641 1042.05 815.718 1039.41 814.507 1014.66C813.297 989.913 787.01 986.935 787.01 986.935C787.01 986.935 790.8 1021.45 798.017 1072.53C802.145 1101.74 819.413 1123.06 833.444 1135.98L874.518 1121.84C912.196 1067.98 935.585 1008.62 948.585 945.261L928.993 944.747Z" fill="url(#paint54_linear_13902_408)"/>
<path d="M259.814 1173.63C264.547 1172.39 296.886 1138.98 301.747 1138.05C381.454 1122.86 580.404 1069.28 713.562 1167.51C713.895 1170.34 714.105 1172.61 714.236 1174.49C715.528 1176.24 717.298 1179.18 719.727 1183.89C732.301 1208.26 747.391 1231.94 764.667 1254.07C760.865 1257.84 757.708 1262.27 755.407 1267.2C723.411 1335.74 602.12 1609.46 623.437 1776.85C624.537 1785.49 618.655 1793.46 610.022 1794.65C562.94 1801.16 422.72 1817.04 350.278 1787.13C346.062 1785.38 343.366 1781.25 343.431 1776.69C343.907 1743.11 342.487 1597.35 289.051 1421.65C287.06 1415.1 285.436 1408.45 284.136 1401.74C283.477 1403.09 282.859 1404.43 282.221 1405.77L259.814 1173.63Z" fill="url(#paint55_linear_13902_408)"/>
<path d="M381.455 1122.86C232.812 1133.73 201.749 1218.67 99.0234 1166.74L117.213 1325.8C155.305 1367.87 212.816 1396.52 285.285 1407.26L381.455 1122.86Z" fill="url(#paint56_linear_13902_408)"/>
<path d="M483.02 979C457.551 1029.77 446.919 1081.48 443.729 1129.63C449.207 1131.67 522.31 1182.38 571.242 1133.29C560.782 1099.6 562.512 1048.89 565.173 996.867L483.02 979Z" fill="url(#paint57_linear_13902_408)"/>
<path d="M615.635 845.526C617.035 847.792 653.567 1020.08 653.567 1020.08L554.751 1038.85L495.865 880.699C495.865 880.699 592.191 807.591 615.635 845.526Z" fill="url(#paint58_linear_13902_408)"/>
<path d="M533.59 894.756C530.946 898.375 530.121 902.984 531.352 907.294L555.477 991.735C555.844 993.016 556.364 994.225 557.071 995.355C560.968 1001.58 574.969 1020.41 593.844 1004.95C609.931 991.774 624.897 979.885 638.312 976.925C646.145 975.195 653.841 980.318 655.475 988.172C658.842 1004.35 664.977 1037.13 666.338 1067.02C666.679 1074.51 661.128 1080.97 653.685 1081.88C634.045 1084.31 595.551 1087.9 563.331 1083.85C558.038 1083.19 553.563 1079.68 551.642 1074.7C543.186 1052.81 519.237 991.528 509.814 975.269C501.06 960.164 477.808 958.738 467.108 958.929C463.046 959.001 459.17 957.402 456.352 954.476C447.9 945.701 434.366 925.865 457.323 904.583C463.031 899.292 463.265 890.268 458.092 884.452C448.824 874.031 440.339 856.86 458.009 837.478C475.897 817.857 497.478 821.453 511.333 827.046C517.463 829.521 524.79 827.923 528.805 822.671C530.591 820.335 533.33 818.67 537.527 818.93C545.443 819.42 552.213 813.876 552.756 805.964C553.687 792.396 560.081 776.16 583.698 770.364C627.014 759.734 651.009 802.421 651.76 833.223C652.511 864.026 604.894 872.88 577.442 869.126C557.278 866.369 540.876 884.785 533.59 894.756Z" fill="url(#paint59_linear_13902_408)"/>
<path d="M524.621 1007.31C524.621 1007.31 515.426 952.765 493.456 948.805C471.485 944.845 448.834 961.713 469.009 992.918C494.104 1031.73 524.621 1007.31 524.621 1007.31Z" fill="url(#paint60_linear_13902_408)"/>
<path d="M488.386 811.074C492.218 810.917 496.378 811.282 500.965 812.253C511.41 814.466 525.325 819.835 521.701 829.881C516.258 844.968 488.021 830.872 472.986 855.196C459.738 876.63 470.582 899.907 466.527 923.006C464.554 934.243 457.334 950.928 447.296 957.491C442.807 960.426 407.355 966.041 405.416 959.75C405.416 959.75 395.565 927.779 395.562 927.768C386.699 899.004 420.753 851.074 438.317 831.696C451.887 816.725 470.277 811.815 488.386 811.074Z" fill="url(#paint61_linear_13902_408)"/>
<path d="M454.781 926.516L420.869 954.746C355.841 982.402 308.597 1014.99 274.359 1050.25C261.962 1026.93 241.893 999.975 209.898 978.944C275.446 946.657 324.241 933.243 324.241 933.243C456.528 880.042 454.781 926.516 454.781 926.516Z" fill="url(#paint62_linear_13902_408)"/>
<path d="M274.358 1050.26C167.45 1160.35 198.69 1104.4 197.84 1198.25C197.523 1233.23 167.16 1366.83 167.16 1366.83C-159.793 1225.59 113.056 1032.79 209.897 978.945C241.892 999.977 261.961 1026.94 274.358 1050.26Z" fill="url(#paint63_linear_13902_408)"/>
<defs>
<linearGradient id="paint0_linear_13902_408" x1="3178.8" y1="3644.02" x2="672.346" y2="531.161" gradientUnits="userSpaceOnUse">
<stop stop-color="#DAE3FE"/>
<stop offset="1" stop-color="#E9EFFD"/>
</linearGradient>
<linearGradient id="paint1_linear_13902_408" x1="1633.09" y1="1985.92" x2="2123.19" y2="937.648" gradientUnits="userSpaceOnUse">
<stop stop-color="#09005D"/>
<stop offset="1" stop-color="#1A0F91"/>
</linearGradient>
<linearGradient id="paint2_linear_13902_408" x1="1420.56" y1="93.2225" x2="1420.56" y2="1202.75" gradientUnits="userSpaceOnUse">
<stop stop-color="#09005D"/>
<stop offset="1" stop-color="#1A0F91"/>
</linearGradient>
<linearGradient id="paint3_linear_13902_408" x1="1729.64" y1="3805.83" x2="1559.47" y2="2975.38" gradientUnits="userSpaceOnUse">
<stop stop-color="#09005D"/>
<stop offset="1" stop-color="#1A0F91"/>
</linearGradient>
<linearGradient id="paint4_linear_13902_408" x1="2307.33" y1="-287.466" x2="2137.2" y2="1626.94" gradientUnits="userSpaceOnUse">
<stop stop-color="#4042E2"/>
<stop offset="1" stop-color="#4F52FF"/>
</linearGradient>
<linearGradient id="paint5_linear_13902_408" x1="1872.88" y1="-326.071" x2="1702.76" y2="1588.29" gradientUnits="userSpaceOnUse">
<stop stop-color="#4042E2"/>
<stop offset="1" stop-color="#4F52FF"/>
</linearGradient>
<linearGradient id="paint6_linear_13902_408" x1="1750.29" y1="-336.974" x2="1580.16" y2="1577.4" gradientUnits="userSpaceOnUse">
<stop stop-color="#4042E2"/>
<stop offset="1" stop-color="#4F52FF"/>
</linearGradient>
<linearGradient id="paint7_linear_13902_408" x1="1806.47" y1="-331.973" x2="1636.35" y2="1582.39" gradientUnits="userSpaceOnUse">
<stop stop-color="#4042E2"/>
<stop offset="1" stop-color="#4F52FF"/>
</linearGradient>
<linearGradient id="paint8_linear_13902_408" x1="2183.78" y1="-298.435" x2="2013.66" y2="1615.9" gradientUnits="userSpaceOnUse">
<stop stop-color="#4042E2"/>
<stop offset="1" stop-color="#4F52FF"/>
</linearGradient>
<linearGradient id="paint9_linear_13902_408" x1="1764.94" y1="-335.672" x2="1594.82" y2="1578.7" gradientUnits="userSpaceOnUse">
<stop stop-color="#4042E2"/>
<stop offset="1" stop-color="#4F52FF"/>
</linearGradient>
<linearGradient id="paint10_linear_13902_408" x1="1764.04" y1="-335.758" x2="1593.91" y2="1578.62" gradientUnits="userSpaceOnUse">
<stop stop-color="#4042E2"/>
<stop offset="1" stop-color="#4F52FF"/>
</linearGradient>
<linearGradient id="paint11_linear_13902_408" x1="1960.91" y1="-318.248" x2="1790.79" y2="1596.11" gradientUnits="userSpaceOnUse">
<stop stop-color="#4042E2"/>
<stop offset="1" stop-color="#4F52FF"/>
</linearGradient>
<linearGradient id="paint12_linear_13902_408" x1="2066.34" y1="-308.871" x2="1896.22" y2="1605.47" gradientUnits="userSpaceOnUse">
<stop stop-color="#4042E2"/>
<stop offset="1" stop-color="#4F52FF"/>
</linearGradient>
<linearGradient id="paint13_linear_13902_408" x1="1804.51" y1="-332.164" x2="1634.39" y2="1582.22" gradientUnits="userSpaceOnUse">
<stop stop-color="#4042E2"/>
<stop offset="1" stop-color="#4F52FF"/>
</linearGradient>
<linearGradient id="paint14_linear_13902_408" x1="2419.26" y1="-277.514" x2="2249.13" y2="1636.89" gradientUnits="userSpaceOnUse">
<stop stop-color="#4042E2"/>
<stop offset="1" stop-color="#4F52FF"/>
</linearGradient>
<linearGradient id="paint15_linear_13902_408" x1="2277.77" y1="-290.131" x2="2107.64" y2="1624.3" gradientUnits="userSpaceOnUse">
<stop stop-color="#4042E2"/>
<stop offset="1" stop-color="#4F52FF"/>
</linearGradient>
<linearGradient id="paint16_linear_13902_408" x1="2825.95" y1="-220.596" x2="2655.83" y2="1693.79" gradientUnits="userSpaceOnUse">
<stop stop-color="#4042E2"/>
<stop offset="1" stop-color="#4F52FF"/>
</linearGradient>
<linearGradient id="paint17_linear_13902_408" x1="2905.42" y1="-213.534" x2="2735.29" y2="1700.85" gradientUnits="userSpaceOnUse">
<stop stop-color="#4042E2"/>
<stop offset="1" stop-color="#4F52FF"/>
</linearGradient>
<linearGradient id="paint18_linear_13902_408" x1="2909.38" y1="-213.178" x2="2739.25" y2="1701.19" gradientUnits="userSpaceOnUse">
<stop stop-color="#4042E2"/>
<stop offset="1" stop-color="#4F52FF"/>
</linearGradient>
<linearGradient id="paint19_linear_13902_408" x1="2837.64" y1="-219.551" x2="2667.52" y2="1694.81" gradientUnits="userSpaceOnUse">
<stop stop-color="#4042E2"/>
<stop offset="1" stop-color="#4F52FF"/>
</linearGradient>
<linearGradient id="paint20_linear_13902_408" x1="2673.89" y1="-234.091" x2="2503.76" y2="1680.26" gradientUnits="userSpaceOnUse">
<stop stop-color="#4042E2"/>
<stop offset="1" stop-color="#4F52FF"/>
</linearGradient>
<linearGradient id="paint21_linear_13902_408" x1="2765.69" y1="-225.94" x2="2595.57" y2="1688.42" gradientUnits="userSpaceOnUse">
<stop stop-color="#4042E2"/>
<stop offset="1" stop-color="#4F52FF"/>
</linearGradient>
<linearGradient id="paint22_linear_13902_408" x1="2886.35" y1="-215.222" x2="2716.22" y2="1699.15" gradientUnits="userSpaceOnUse">
<stop stop-color="#4042E2"/>
<stop offset="1" stop-color="#4F52FF"/>
</linearGradient>
<linearGradient id="paint23_linear_13902_408" x1="2448.94" y1="-254.068" x2="2278.82" y2="1660.26" gradientUnits="userSpaceOnUse">
<stop stop-color="#4042E2"/>
<stop offset="1" stop-color="#4F52FF"/>
</linearGradient>
<linearGradient id="paint24_linear_13902_408" x1="2566.52" y1="-243.627" x2="2396.4" y2="1670.71" gradientUnits="userSpaceOnUse">
<stop stop-color="#4042E2"/>
<stop offset="1" stop-color="#4F52FF"/>
</linearGradient>
<linearGradient id="paint25_linear_13902_408" x1="2874.8" y1="-216.255" x2="2704.67" y2="1698.13" gradientUnits="userSpaceOnUse">
<stop stop-color="#4042E2"/>
<stop offset="1" stop-color="#4F52FF"/>
</linearGradient>
<linearGradient id="paint26_linear_13902_408" x1="2168.14" y1="-299.854" x2="1998.01" y2="1614.55" gradientUnits="userSpaceOnUse">
<stop stop-color="#4042E2"/>
<stop offset="1" stop-color="#4F52FF"/>
</linearGradient>
<linearGradient id="paint27_linear_13902_408" x1="1436.09" y1="3708.23" x2="1731.63" y2="2791.75" gradientUnits="userSpaceOnUse">
<stop stop-color="#09005D"/>
<stop offset="1" stop-color="#1A0F91"/>
</linearGradient>
<linearGradient id="paint28_linear_13902_408" x1="2204.71" y1="719.717" x2="2383.05" y2="719.717" gradientUnits="userSpaceOnUse">
<stop stop-color="#4042E2"/>
<stop offset="1" stop-color="#4F52FF"/>
</linearGradient>
<linearGradient id="paint29_linear_13902_408" x1="2276.61" y1="683.014" x2="2529.23" y2="683.014" gradientUnits="userSpaceOnUse">
<stop stop-color="#4042E2"/>
<stop offset="1" stop-color="#4F52FF"/>
</linearGradient>
<linearGradient id="paint30_linear_13902_408" x1="1107.67" y1="3602.33" x2="1403.21" y2="2685.84" gradientUnits="userSpaceOnUse">
<stop stop-color="#09005D"/>
<stop offset="1" stop-color="#1A0F91"/>
</linearGradient>
<linearGradient id="paint31_linear_13902_408" x1="2105.38" y1="584.69" x2="2302.01" y2="584.69" gradientUnits="userSpaceOnUse">
<stop stop-color="#4042E2"/>
<stop offset="1" stop-color="#4F52FF"/>
</linearGradient>
<linearGradient id="paint32_linear_13902_408" x1="1962.91" y1="565.504" x2="2345.48" y2="565.504" gradientUnits="userSpaceOnUse">
<stop stop-color="#4042E2"/>
<stop offset="1" stop-color="#4F52FF"/>
</linearGradient>
<linearGradient id="paint33_linear_13902_408" x1="621.619" y1="-286.61" x2="365.922" y2="708.248" gradientUnits="userSpaceOnUse">
<stop stop-color="#FE7062"/>
<stop offset="1" stop-color="#FF928E"/>
</linearGradient>
<linearGradient id="paint34_linear_13902_408" x1="1349.12" y1="-760.445" x2="950.188" y2="-278.151" gradientUnits="userSpaceOnUse">
<stop stop-color="#E1473D"/>
<stop offset="1" stop-color="#E9605A"/>
</linearGradient>
<linearGradient id="paint35_linear_13902_408" x1="1439.62" y1="-685.587" x2="1040.68" y2="-203.294" gradientUnits="userSpaceOnUse">
<stop stop-color="#E1473D"/>
<stop offset="1" stop-color="#E9605A"/>
</linearGradient>
<linearGradient id="paint36_linear_13902_408" x1="1289.49" y1="293.764" x2="1536.93" y2="1693.99" gradientUnits="userSpaceOnUse">
<stop stop-color="#09005D"/>
<stop offset="1" stop-color="#1A0F91"/>
</linearGradient>
<linearGradient id="paint37_linear_13902_408" x1="1941.55" y1="478.231" x2="661.127" y2="3443.75" gradientUnits="userSpaceOnUse">
<stop stop-color="#FE7062"/>
<stop offset="1" stop-color="#FF928E"/>
</linearGradient>
<linearGradient id="paint38_linear_13902_408" x1="1145.47" y1="1375.94" x2="1799.37" y2="-214.072" gradientUnits="userSpaceOnUse">
<stop stop-color="#09005D"/>
<stop offset="1" stop-color="#1A0F91"/>
</linearGradient>
<linearGradient id="paint39_linear_13902_408" x1="1314.01" y1="1445.26" x2="1967.92" y2="-144.751" gradientUnits="userSpaceOnUse">
<stop stop-color="#09005D"/>
<stop offset="1" stop-color="#1A0F91"/>
</linearGradient>
<linearGradient id="paint40_linear_13902_408" x1="1520.16" y1="1530.04" x2="2174.06" y2="-59.9723" gradientUnits="userSpaceOnUse">
<stop stop-color="#09005D"/>
<stop offset="1" stop-color="#1A0F91"/>
</linearGradient>
<linearGradient id="paint41_linear_13902_408" x1="1175.11" y1="1388.13" x2="1829.01" y2="-201.879" gradientUnits="userSpaceOnUse">
<stop stop-color="#09005D"/>
<stop offset="1" stop-color="#1A0F91"/>
</linearGradient>
<linearGradient id="paint42_linear_13902_408" x1="1291.54" y1="1436.02" x2="1945.44" y2="-153.998" gradientUnits="userSpaceOnUse">
<stop stop-color="#09005D"/>
<stop offset="1" stop-color="#1A0F91"/>
</linearGradient>
<linearGradient id="paint43_linear_13902_408" x1="1409.57" y1="1484.56" x2="2063.48" y2="-105.458" gradientUnits="userSpaceOnUse">
<stop stop-color="#09005D"/>
<stop offset="1" stop-color="#1A0F91"/>
</linearGradient>
<linearGradient id="paint44_linear_13902_408" x1="1529.28" y1="1533.79" x2="2183.17" y2="-56.1924" gradientUnits="userSpaceOnUse">
<stop stop-color="#09005D"/>
<stop offset="1" stop-color="#1A0F91"/>
</linearGradient>
<linearGradient id="paint45_linear_13902_408" x1="1661.79" y1="1588.28" x2="2315.69" y2="-1.73441" gradientUnits="userSpaceOnUse">
<stop stop-color="#09005D"/>
<stop offset="1" stop-color="#1A0F91"/>
</linearGradient>
<linearGradient id="paint46_linear_13902_408" x1="834.483" y1="2635.99" x2="134.902" y2="3396.93" gradientUnits="userSpaceOnUse">
<stop stop-color="#09005D"/>
<stop offset="1" stop-color="#1A0F91"/>
</linearGradient>
<linearGradient id="paint47_linear_13902_408" x1="607.411" y1="2692.5" x2="669.551" y2="2692.5" gradientUnits="userSpaceOnUse">
<stop stop-color="#FEBBBA"/>
<stop offset="1" stop-color="#FF928E"/>
</linearGradient>
<linearGradient id="paint48_linear_13902_408" x1="-3072.46" y1="6477.93" x2="-2402.63" y2="5692.86" gradientUnits="userSpaceOnUse">
<stop stop-color="#020039"/>
<stop offset="1" stop-color="#090056"/>
</linearGradient>
<linearGradient id="paint49_linear_13902_408" x1="677.544" y1="2491.7" x2="-22.0377" y2="3252.65" gradientUnits="userSpaceOnUse">
<stop stop-color="#09005D"/>
<stop offset="1" stop-color="#1A0F91"/>
</linearGradient>
<linearGradient id="paint50_linear_13902_408" x1="383.457" y1="2689.32" x2="437.11" y2="2689.32" gradientUnits="userSpaceOnUse">
<stop stop-color="#FEBBBA"/>
<stop offset="1" stop-color="#FF928E"/>
</linearGradient>
<linearGradient id="paint51_linear_13902_408" x1="-3166.37" y1="6397.81" x2="-2496.54" y2="5612.74" gradientUnits="userSpaceOnUse">
<stop stop-color="#020039"/>
<stop offset="1" stop-color="#090056"/>
</linearGradient>
<linearGradient id="paint52_linear_13902_408" x1="830.091" y1="1039.44" x2="588.444" y2="1720.14" gradientUnits="userSpaceOnUse">
<stop stop-color="#4F52FF"/>
<stop offset="1" stop-color="#4042E2"/>
</linearGradient>
<linearGradient id="paint53_linear_13902_408" x1="605.773" y1="833.572" x2="1234.22" y2="1774.78" gradientUnits="userSpaceOnUse">
<stop stop-color="#FEBBBA"/>
<stop offset="1" stop-color="#FF928E"/>
</linearGradient>
<linearGradient id="paint54_linear_13902_408" x1="705.921" y1="766.698" x2="1334.37" y2="1707.9" gradientUnits="userSpaceOnUse">
<stop stop-color="#FEBBBA"/>
<stop offset="1" stop-color="#FF928E"/>
</linearGradient>
<linearGradient id="paint55_linear_13902_408" x1="623.324" y1="966.034" x2="381.676" y2="1646.73" gradientUnits="userSpaceOnUse">
<stop stop-color="#4F52FF"/>
<stop offset="1" stop-color="#4042E2"/>
</linearGradient>
<linearGradient id="paint56_linear_13902_408" x1="341.601" y1="866.023" x2="99.9536" y2="1546.72" gradientUnits="userSpaceOnUse">
<stop stop-color="#4F52FF"/>
<stop offset="1" stop-color="#4042E2"/>
</linearGradient>
<linearGradient id="paint57_linear_13902_408" x1="576.907" y1="962.707" x2="326.918" y2="1431.98" gradientUnits="userSpaceOnUse">
<stop stop-color="#FEBBBA"/>
<stop offset="1" stop-color="#FF928E"/>
</linearGradient>
<linearGradient id="paint58_linear_13902_408" x1="237.813" y1="896.258" x2="721.346" y2="954.249" gradientUnits="userSpaceOnUse">
<stop stop-color="#FEBBBA"/>
<stop offset="1" stop-color="#FF928E"/>
</linearGradient>
<linearGradient id="paint59_linear_13902_408" x1="485.008" y1="1003.08" x2="690.309" y2="876.202" gradientUnits="userSpaceOnUse">
<stop stop-color="#09005D"/>
<stop offset="1" stop-color="#1A0F91"/>
</linearGradient>
<linearGradient id="paint60_linear_13902_408" x1="231.369" y1="949.96" x2="714.905" y2="1007.95" gradientUnits="userSpaceOnUse">
<stop stop-color="#FEBBBA"/>
<stop offset="1" stop-color="#FF928E"/>
</linearGradient>
<linearGradient id="paint61_linear_13902_408" x1="515.467" y1="844.344" x2="125.344" y2="1108.83" gradientUnits="userSpaceOnUse">
<stop stop-color="#FEBBBA"/>
<stop offset="1" stop-color="#FF928E"/>
</linearGradient>
<linearGradient id="paint62_linear_13902_408" x1="507.667" y1="836.485" x2="101.829" y2="1111.63" gradientUnits="userSpaceOnUse">
<stop stop-color="#FEBBBA"/>
<stop offset="1" stop-color="#FF928E"/>
</linearGradient>
<linearGradient id="paint63_linear_13902_408" x1="246.718" y1="832.343" x2="5.07033" y2="1513.04" gradientUnits="userSpaceOnUse">
<stop stop-color="#4F52FF"/>
<stop offset="1" stop-color="#4042E2"/>
</linearGradient>
</defs>
</svg>
